<?xml version="1.0" encoding="iso-8859-1"?>
<!-- Uploaded to: SVG Repo, www.svgrepo.com, Generator: SVG Repo Mixer Tools -->
<svg height="800px" width="800px" version="1.1" id="Layer_1" xmlns="http://www.w3.org/2000/svg" xmlns:xlink="http://www.w3.org/1999/xlink" 
	 viewBox="0 0 512 512" xml:space="preserve">
<g>
	<path style="fill:#2C3E50;" d="M256,0c-65.392,0-118.4,53.008-118.4,118.4S190.608,236.8,256,236.8s118.4-53.008,118.4-118.4
		S321.392,0,256,0L256,0z"/>
	<path style="fill:#2C3E50;" d="M136,264c0,0-120,1.6-120,112s0,136,0,136s233.6,0,234.4,0L136,264L136,264z M250.4,512L250.4,512
		L250.4,512L250.4,512z"/>
	<path style="fill:#2C3E50;" d="M376,264L261.6,512l0,0H496c0,0,0-25.6,0-136S376,264,376,264L376,264z"/>
</g>
<polygon style="fill:#E04F5F;" points="256,264 173.6,264 256,446.4 338.4,264 "/>
</svg>